<svg width="1300" height="883" viewBox="0 0 1300 883" fill="none" xmlns="http://www.w3.org/2000/svg">
<g clip-path="url(#clip0_13_45)">
<path d="M631.33 55.4698L644.75 -7.3501L659.33 59.5499L631.33 55.4698Z" fill="#C7972C"/>
<path d="M592.06 126.01L602.48 135.24C602.48 135.24 602.53 135.21 602.55 135.2L629.23 153.07H629.25L632.05 154.95C630.35 154.95 628.94 155.96 627.7 157.05C623.82 160.49 597.65 185.03 597.8 187.15C599.21 188.74 601.31 189.8 603.56 190.53H679.86C684.38 189.78 688.84 188.9 693.17 187.9L655.15 153.61C655.06 153.59 655 153.54 654.91 153.52C654.89 153.5 654.89 153.45 654.91 153.39C655.2 151.62 675.83 139.49 682.54 136.05L693.18 128.92C693.18 128.92 667.73 80.3096 664.67 73.0396C655.18 50.4996 650.11 24.6497 646.33 0.619655C642.91 0.199655 644.06 0.549677 643.33 2.57968C640.44 10.6597 639.36 24.2897 637.06 33.4897C632.7 51.0197 627.1 65.5897 616.47 84.0597C611.78 91.3197 592.06 126.01 592.06 126.01ZM668.51 183.57H630.62C631.55 179.07 635.52 176.84 637.09 172.16C638.13 169.03 638.44 164.33 639.21 160.69C639.48 159.45 639.01 157.78 639.21 156.41C648.9 156.1 648.52 161.97 653.51 167.11C655.16 168.81 657.22 170.16 659.22 172.12C659.31 172.21 659.37 172.27 659.46 172.34C662.37 174.68 674.33 178.69 674.93 179.29C677.45 181.83 669.04 183.57 668.51 183.57Z" fill="#C7972C"/>
<path d="M643.77 39.3198C643.66 41.0298 643.07 42.8898 642.52 44.4798C641.85 46.4198 641.31 48.4198 640.7 50.3898C639.47 54.3198 638.22 58.2398 636.94 62.1498C635.45 66.7098 633.92 71.2598 632.36 75.7998C631.58 78.0698 630.79 80.3298 629.99 82.5998C629.47 84.0698 627.86 86.6798 627.86 88.2098C623.22 99.9798 617.84 111.45 611.86 122.6C610.54 125.06 614.81 127.03 616.32 128.18C619.28 130.42 622.24 132.66 625.2 134.91C631.12 139.39 637.04 143.88 642.96 148.36C643.66 148.89 648.23 145.2 648.81 144.81C651.51 143.01 654.2 141.21 656.9 139.42C662.66 135.58 668.45 131.76 674.18 127.86C674.69 127.5 671.14 120.38 670.84 119.69C662.72 101.37 656.09 82.2798 650.03 63.1698C647.63 55.5998 644.49 47.2798 643.78 39.3398L643.77 39.3198Z" fill="#D3A12A"/>
<path d="M647.55 153.72L683.42 182.16L625.7 188.88L630.62 166.47L639.15 151.89L647.55 153.72Z" fill="#C7972C"/>
<path d="M642.92 49.48L644.54 140.69L668.57 124.57L642.92 49.48Z" fill="#EBB424"/>
<path d="M642.46 43.4698L648.24 56.8999L646.64 43.3399L644.82 38.1099L639.86 40.8699L642.46 43.4698Z" fill="#C7972C"/>
<path d="M696.09 190.52H590.59L629.23 153.07H654.56L654.92 153.38L655.16 153.6L693.18 187.89L696.09 190.52Z" fill="#C7972C"/>
<path d="M642.04 156.06L608.92 183.57H673.93" fill="#D3A12A"/>
<path d="M641.78 158.06L642.46 181.39L669.73 181.96L641.78 158.06Z" fill="#EBB424"/>
<path d="M684.55 135.13L685.08 129.57L679.72 96.8602L674.89 88.9202C662.58 77.4202 644.36 78.2002 631.2 80.8902C623.2 82.5302 615.73 85.9702 608.94 90.4902C607.68 91.3302 606.35 92.1102 604.94 92.8302C559.66 116.02 496.88 91.4202 449.37 83.9602C390.52 74.7102 339.46 83.9202 281.4 92.3202C272.18 93.6402 262.89 95.3002 253.88 97.7502C251.14 97.6602 247.5 89.4102 244.04 86.3202C237.35 80.4102 215.02 73.3502 214.74 85.7702C214.52 94.2902 231.53 93.2902 237.58 102.81C253.42 127.61 218.03 161.4 196.14 131.39C191.62 125.19 190.87 111.27 181.44 113.74C173.12 115.95 177.31 127.16 179.3 132.5C183.93 145.01 194.85 155.85 210.27 158.26C212.59 158.96 214.93 159.35 217.05 159.64C218.13 159.78 219.43 159.5 220.82 159.4C221.8 159.33 222.77 159.21 223.72 158.94C238.79 154.69 252.34 146.36 254.86 129.39L366.93 119.26C394.09 118.02 419.34 116.63 446.3 121.36C497.69 130.34 550.63 163.97 602.55 135.22L602.74 135.35C648.57 110.39 684.54 135.15 684.54 135.15L684.55 135.13ZM238.86 92.9402L224.72 84.9502C234.23 82.6802 244.98 93.4202 246.15 102.07L238.87 92.9302L238.86 92.9402ZM590.53 122.75C550.35 146.49 467.38 100.84 421.3 97.7502C367.06 94.1102 313.46 106.62 260.46 114.94L301.81 102.72C309.6 102.54 317.17 100.31 324.76 99.2302C363.95 89.2602 404.99 86.2802 445.11 92.5002C496.66 100.49 553.08 129.11 603.46 103.51C604.45 108.34 601.52 110.17 599.18 113.53C596.91 116.8 594.59 120.35 590.53 122.75Z" fill="#C7972C"/>
<path d="M684.26 135.23C684.38 135.18 684.49 135.15 684.55 135.14C685.83 134.96 703.79 143.48 708.91 144.58C758.78 155.26 812.91 121.28 862.89 117.84C877.76 116.8 893.63 118.55 908.61 117.84L1032.69 129.51C1037.01 135.75 1039.55 143.68 1045.84 149.26C1051.16 154 1061.57 156.67 1067.24 158.84C1068.18 159.2 1069.16 159.41 1070.17 159.44C1071.39 159.47 1073.3 159.46 1076.06 159.27C1077.25 159.19 1078.42 158.93 1079.53 158.52C1083.38 157.07 1092.76 154.88 1097.04 151.89C1105.12 146.24 1120.58 119.3 1107.96 114.2C1098.54 110.4 1097.9 127.13 1093.71 132.82C1074.82 158.42 1036.21 130.39 1051.96 103.94C1059.68 91.0101 1078.79 96.1701 1074.84 83.0901C1072.57 75.5201 1055.84 79.9801 1050.77 82.7401C1044.33 86.2301 1041.24 92.2501 1035.85 96.5301C973.34 90.1101 910.6 70.9801 847.58 81.0801C794.31 89.6201 742.72 115.04 688.48 94.98C681.82 92.52 677.82 90.9901 674.89 88.9301M1026.53 114.94C996.59 110.84 967.15 102.45 937.03 99.41C902.39 95.9 870.19 96.5201 836.17 103.96C795.83 112.81 743.69 139.99 703.16 124.61C694.91 121.5 693.91 120.73 690.67 113.53C689.66 111.3 686.94 109.69 687.8 106.38C749.01 126.48 809.16 90.67 869.98 87.73C902.51 86.16 937.94 93.07 969.37 100.66C987.09 103.57 1005.47 106.97 1022.55 112.51C1024.05 113 1026.87 112.89 1026.54 114.94H1026.53Z" fill="#C7972C"/>
<path d="M969.36 100.66C987.08 103.57 1005.45 106.98 1022.55 112.52C1024.05 113.01 1026.87 112.88 1026.53 114.94C996.59 110.83 967.17 102.46 937.03 99.4099C902.38 95.8999 870.19 96.52 836.17 103.96C795.84 112.79 743.69 139.98 703.15 124.61C694.91 121.49 693.9 120.71 690.66 113.52C735.78 133.26 784.43 109.26 828.76 99.4099C876.82 88.7299 921.28 92.7699 969.36 100.66Z" fill="#D3A12A"/>
<path d="M599.18 113.53C596.91 116.8 594.59 120.35 590.53 122.75C550.35 146.49 467.38 100.84 421.3 97.7499C367.06 94.1099 313.46 106.62 260.46 114.94L301.81 102.72C309.6 102.54 317.17 100.31 324.76 99.2299C371.03 92.5699 411.44 90.5599 457.42 100.2C503.58 109.89 552.99 135.09 599.17 113.53H599.18Z" fill="#D3A12A"/>
<path d="M969.36 100.66C921.28 92.7698 876.81 88.7198 828.76 99.4098C784.43 109.27 735.78 133.26 690.66 113.52C689.66 111.31 686.94 109.69 687.81 106.38C749.01 126.49 809.16 90.6598 869.97 87.7298C902.49 86.1598 937.94 93.0598 969.36 100.65V100.66Z" fill="#EBB424"/>
<path d="M599.18 113.53C553 135.09 503.59 109.89 457.43 100.2C411.44 90.5599 371.04 92.5699 324.77 99.2299C363.96 89.2599 405 86.2799 445.12 92.4999C496.67 100.49 553.09 129.11 603.47 103.51C604.46 108.34 601.53 110.17 599.19 113.53H599.18Z" fill="#EBB424"/>
<path d="M246.14 102.09L238.87 92.94L224.72 84.95C234.22 82.68 244.96 93.42 246.14 102.09Z" fill="#E6C61F"/>
<path d="M1045.11 102.09L1052.38 92.94L1066.53 84.95C1057.03 82.68 1046.29 93.42 1045.11 102.09Z" fill="#E6C61F"/>
<path d="M395.59 755.17C389.99 748.04 384.27 723.33 380.5 713.82C377.94 710.64 378.62 708.72 377.63 706.67C374.34 699.85 373.17 694.58 370.5 688.09C365.93 677.08 361.83 666.24 357.64 655.21C356.36 651.83 354.59 648.55 353.34 645.21C348.55 632.39 343.7 619.5 339.06 606.62C337.38 601.99 335.15 597.35 334.76 592.32C329.77 587.05 322.4 561.07 319.05 552.31C285.77 465.22 255.28 377.06 221.89 290.01C240.84 281.67 238.75 256.65 218.91 251.28V148.01C218.36 147.84 217.81 147.68 217.23 147.55C214.95 147.05 212.66 146.79 210.35 146.63L210.48 251.19C191.15 257.41 188.92 283.1 208.98 289.34L34.5901 754.14C29.8501 757.36 17.1401 761.13 17.7801 768.59C17.9601 770.51 34.3501 798.51 36.8701 802.31C58.1401 834.28 100.84 841.85 137.03 846.51C194.18 853.88 336.71 855.65 381.81 817.29C388.3 811.77 404.23 785.29 407.3 777.02C414.43 757.76 401.36 762.48 395.6 755.15L395.59 755.17ZM211.43 261.04C227.8 257.29 230.91 277.81 219.06 281.56C204.05 286.28 199.07 263.89 211.43 261.04ZM214.72 295.05L386.2 752.41C367.69 745.97 347.78 743.25 328.32 740.98C251.71 732.02 161.9 732.64 85.5901 744.07C71.3601 746.19 57.1002 748.73 43.2002 752.39L214.72 295.05ZM357.64 791C277.41 808.08 128.62 809.98 50.3502 785.99C43.9902 784.03 38.2801 780.8 31.7701 779.55C31.5301 776.77 34.5901 778.45 36.0501 778.82C55.5301 783.98 72.3502 789.3 92.7202 792.21C163.11 802.27 286.88 803.27 356.21 789.56C367.02 787.42 379.11 781.11 390.5 781L357.64 791ZM369.38 779.15C326.13 791.37 274.5 791.77 229.66 792.37C176.24 793.05 93.5101 794.11 43.1801 776C28.0201 770.55 28.3702 764.39 43.2202 758.88C71.2202 748.49 132.98 743.61 163.9 742.35C222.75 739.94 297.55 740.52 355.08 751.4C362.08 752.72 387.56 758.22 391.49 762.83C399.63 772.36 375.85 777.33 369.38 779.16V779.15Z" fill="#C7972C"/>
<path d="M391.5 762.82C399.64 772.37 375.85 777.32 369.38 779.15C326.14 791.38 274.5 791.77 229.66 792.36C176.23 793.06 93.5101 794.1 43.1902 775.99C28.0202 770.53 28.3801 764.37 43.2401 758.86C71.2301 748.47 132.99 743.59 163.92 742.33C222.76 739.93 297.56 740.5 355.08 751.38C362.09 752.71 387.57 758.19 391.5 762.81V762.82Z" fill="#AE852E"/>
<path d="M356.21 789.56L357.64 790.99C277.41 808.08 128.62 809.98 50.3502 785.98C43.9902 784.03 38.2702 780.81 31.7702 779.54C31.5202 776.77 34.6002 778.44 36.0602 778.82C55.5302 783.99 72.3502 789.3 92.7102 792.21C163.1 802.27 286.88 803.27 356.2 789.56H356.21Z" fill="#F9E48D"/>
<path d="M356.21 789.56C367.02 787.42 379.11 781.11 390.51 781L357.64 790.99L356.21 789.56Z" fill="#F9E186"/>
<path d="M214.72 297.25L204.45 736.18" stroke="#C7972C" stroke-width="2.85" stroke-miterlimit="10"/>
<path d="M435.91 772.05C435.91 772.73 435.84 773.42 435.68 774.1C435.47 775 435.13 775.9 434.64 776.78C434.45 777.15 434.23 777.51 433.98 777.87C433.05 779.27 431.78 780.65 430.21 782C427.87 784.01 424.85 785.95 421.2 787.83C415.86 790.59 409.17 793.2 401.29 795.65C401.27 795.65 401.26 795.65 401.25 795.65C373.58 804.23 331.27 810.75 281.38 813.78C261.25 815.01 239.88 815.67 217.75 815.67C166.83 815.67 119.98 812.18 82.8601 806.34C69.0701 804.17 56.6101 801.67 45.8001 798.9C44.6401 798.61 43.5001 798.31 42.3801 798C41.7501 797.84 41.1401 797.67 40.5301 797.49C24.8601 793.14 13.1101 788.19 6.31009 782.83C5.52009 782.22 4.81009 781.6 4.15009 780.97C1.70009 778.62 0.210092 776.2 -0.249908 773.73C-0.349908 773.18 -0.409912 772.61 -0.409912 772.06C-0.409912 771.18 -0.279897 770.3 -0.0198975 769.42C0.170103 768.79 0.420103 768.17 0.730103 767.56C1.5801 765.9 2.90009 764.27 4.65009 762.67C6.33009 761.14 8.40008 759.65 10.8601 758.19C39.8501 740.9 121.52 728.45 217.74 728.45C338.22 728.45 435.89 747.97 435.89 772.06L435.91 772.05Z" fill="#BB872C"/>
<path d="M379.11 752.57C378.13 753.88 376.88 754.54 375.32 754.3C353.07 750.73 334.73 747.96 312.72 746.65C304.75 748.45 297.81 747.82 291.85 744.76L224.36 742.54C221.53 745.82 214.26 749.13 209.87 747.76C208.28 747.27 207.06 746.17 206.58 744.23C206.58 744.23 206.58 744.21 206.58 744.2C206.53 744.04 206.5 743.88 206.48 743.7C206.46 743.62 206.45 743.54 206.43 743.45C203.94 743.55 203.57 743.06 204.67 742.1C205.09 741.72 205.74 741.28 206.58 740.77L206.53 740.48C206.42 739.12 207.33 737.03 209.26 734.24V733.56C209.92 733.56 210.54 733.53 211.13 733.52C212.56 733.49 213.8 733.47 214.83 733.45V733.86C215.99 734.54 216.69 735.86 216.9 737.81L219.27 735.11L244.08 734.88L246.4 737.81H246.42L262.62 739.28C264.24 738.53 265.88 737.85 267.57 737.38C269.24 736.91 270.89 736.5 272.52 736.51C303.8 736.65 339.3 741.68 370.04 747.84C371.63 748.15 373.14 748.9 374.67 749.7C376.21 750.51 377.65 751.5 379.08 752.54C379.08 752.54 379.08 752.56 379.1 752.56L379.11 752.57Z" fill="#BB872C"/>
<path d="M431.95 779.47C431.36 780.3 430.78 781.14 430.21 781.99C424.5 790.48 419.84 799.78 415.11 808.98C411.16 816.64 407.16 824.21 402.44 831.2C401.08 833.21 399.67 835.08 398.2 836.85L398.18 836.88C391.47 844.9 383.5 850.57 373.75 855.6C306.23 890.37 140.22 893.17 61.93 860.04C61.93 860.04 61.93 860.04 61.91 860.04C56.82 857.88 52.1 855.57 47.8 853.12C30.76 843.35 23.55 831.25 17.03 816.67L4.17001 780.98L3.34 778.7L0 769.43C0.19 768.8 0.44 768.18 0.75 767.57C2.34 766.32 3.60001 764.57 4.67001 762.68C6.35001 761.15 8.42 759.66 10.88 758.2C11.14 758.3 11.41 758.41 11.67 758.52C12.73 758.95 13.79 759.44 14.86 759.96L14.9 759.93C15.34 759.5 15.83 759.09 16.36 758.67C17.12 758.1 17.96 757.54 18.87 757.02C18.87 757.02 18.9 757.02 18.91 757C26.39 752.67 38.25 750.42 44.34 754.06C44.45 754.04 44.57 754.01 44.68 753.98C44.7 753.98 44.72 753.98 44.74 753.96C44.83 753.94 44.92 753.92 45.01 753.89C45.04 753.89 45.08 753.89 45.1 753.87C45.13 753.87 45.16 753.87 45.18 753.87C47.03 753.51 47.82 753.95 47.47 755.39C47.4 755.68 47.29 755.99 47.14 756.33L25.08 761.75L24.08 763.65L23.87 764.03L23.69 764.37L24.04 766.36C22.32 767.25 20.82 768.13 19.54 769.01C7.36001 777.38 14.31 785.49 40.4 793.35L41.09 795.79L41.33 796.63L41.38 796.81C41.87 796.96 42.36 797.09 42.84 797.21C44.26 797.6 45.68 798.01 47.13 798.37C58.78 801.48 70.71 804.11 82.83 806.33C146.65 818.02 216 818.12 281.35 813.78C286.45 813.44 291.54 813.08 296.59 812.68C315.94 811.17 368.61 806.31 398.38 795.22C398.43 795.2 398.46 795.19 398.51 795.17C406.59 792.15 412.97 788.68 416.52 784.68C416.7 784.49 416.9 784.24 417.13 783.96C417.13 783.96 417.15 783.94 417.16 783.93C417.18 783.9 417.21 783.87 417.23 783.85C418.8 781.92 421.07 778.61 419.31 778.98C419.2 779.01 419.06 779.06 418.91 779.11C404.86 773.02 390.89 766.76 377.01 760.34L376.14 756.99C378.44 755.41 379.57 754.19 379.55 753.35C379.55 753.04 379.38 752.79 379.09 752.57L382.15 750.12C390.98 750.95 399.66 752.73 408.15 755.46L408 755.07L423.77 765.41C425.46 767.45 427.61 769.22 429.31 771.19C431.26 773.44 432.59 775.97 431.93 779.47H431.95Z" fill="#BB872C"/>
<path d="M23.7101 764.36C23.7101 763.15 23.7802 762.17 24.1702 762.04C30.7802 759.66 39.5402 757.02 46.1502 755.66C97.3702 745.07 152.65 742.87 204.39 741.99C205.55 742.46 209 744.69 209.53 745.42C210.55 746.81 209.83 776.16 209.53 779.95L206.58 782.07L202.14 785.04C166.59 785.37 130.77 785.9 95.2701 789.48C80.7201 790.95 64.9002 792.76 50.9002 796.52C49.5902 796.87 48.4002 797.47 47.3102 798.29C45.4502 799.64 42.4702 798.84 41.4102 796.82C36.6702 795.41 13.0402 785.38 11.2002 782.07C6.60017 773.83 16.1301 767.88 22.5201 764.92C22.9301 764.73 23.3402 764.55 23.7202 764.38L23.7101 764.36Z" fill="#A1752B"/>
<path d="M206.57 740.77C206.77 740.9 206.69 743.66 207.98 744.51C211.39 746.78 218.71 742.56 222.78 742.22L216.9 739.3L292.94 742.11C297.87 746.84 306.03 743.33 313.47 743.73C331.95 744.73 360.77 748.91 379.11 752.55C383.79 753.48 392.37 755.91 397.12 757.42C398.67 757.91 401.58 757.8 401.23 759.91C397.76 758.8 390.12 760.46 387.51 759.93C386.36 759.7 386.61 757.29 385.48 757C382.79 756.32 379.08 757.34 376.17 756.98L373.17 759.28C354.33 755.31 335.14 751.99 315.88 751.02L315.7 785.81L312.75 787.95C309.09 788.95 305.32 789.93 301.5 789.7C273.49 788 245.6 786.43 217.58 785.03C213.75 784.84 210.11 783.45 206.58 782.05V743.7L148.27 745.12C118.39 746.98 49.47 753.17 23.72 764.35L20.77 760.66L45.2 755.57L44.37 754.02C47.25 753.46 51.14 751.7 54.69 751.07C104.7 744.12 155.69 739.27 206.25 738.69L206.58 740.74L206.57 740.77Z" fill="#A0742B"/>
<path d="M376.16 756.99C381.95 758.47 386.4 762.73 391.36 764.65C398.6 767.45 409.99 770.06 416.07 773.9C418.71 775.57 419.73 774.61 418.92 779.11C418.64 785.99 409.56 790.59 403.55 793.38C399.88 795.09 374.86 802.51 373.22 801.45C372.61 801.06 372.15 800.44 371.73 799.75C353.95 795.71 335.21 793.39 316.83 791.39L312.74 787.96V748.14C315.87 748.04 319 748.06 322.14 748.34C336.39 749.61 362.51 753.52 376.15 757L376.16 756.99Z" fill="#A0742B"/>
<path d="M211.12 733.53V735.66L206.57 740.77C201.5 737.32 115.2 744.41 96.0201 746.61C95.2001 746.7 94.5002 746.79 93.9402 746.86C83.6902 748.21 72.6801 751.21 62.5901 752.4C60.2001 752.68 56.1702 753.58 54.6702 751.09C91.1402 744.64 129.71 740.19 166.75 739.3L185.92 737.82C190.11 737.8 205.7 738.88 207.39 736.44V733.61C208.04 733.59 208.66 733.58 209.25 733.57C209.91 733.57 210.53 733.54 211.12 733.53Z" fill="#BB872C"/>
<path d="M41.4001 796.81C43.3401 797.39 45.3401 797.79 47.3001 798.28L54.2601 796.94C103.55 807.84 154.48 811.14 205.05 811.33C261.15 811.54 309.91 805.84 364.83 798.17C365.91 798.02 367.05 798.22 368.21 798.49C369.42 798.77 370.58 799.24 371.74 799.76C388.1 796.25 409.8 795.11 418.93 779.11C419.94 777.34 419.92 774.47 421.86 774.69C422.29 790.24 398.95 796.82 386.5 800.51C355.08 809.82 312.54 814.03 279.63 816.04C206.05 820.52 116.06 818.63 44.8601 800C43.9501 799.76 38.0801 798.64 41.4101 796.81H41.4001Z" fill="#ECB42D"/>
<path d="M135.78 821.88C176.87 825.32 227.9 825.55 269.22 823.34C286.63 822.41 304.05 818.64 321.59 818.94C323 820.39 311.02 852.94 309.03 857.25C308.14 859.19 306.87 862.69 305.45 863.99C302.33 866.86 287.71 868.43 282.49 869.05C236.76 874.47 189.86 872.76 144.63 867.59C138.65 854.32 133.41 836.36 135.78 821.87V821.88Z" fill="#D3A12A"/>
<path d="M135.78 821.88C138.01 835.02 141.15 848.1 144.65 860.96C145.18 862.91 147.55 866.25 144.63 867.6C119.27 864.71 96.9901 862.32 72.3701 854.33L68.0001 850.54C59.5801 825.29 55.3801 812.67 55.3801 812.67L57.6301 810.09C82.1001 815.32 110.88 819.8 135.79 821.89L135.78 821.88Z" fill="#EBB424"/>
<path d="M57.6301 810.08L72.3801 854.32C66.0301 852.26 54.8601 849.73 50.2201 844.77C42.6801 836.7 38.0401 814.66 31.1501 804.84C30.0401 800.07 36.2001 804.8 38.1001 805.28C44.4501 806.89 51.2901 808.73 57.6301 810.08Z" fill="#D19F2A"/>
<path d="M206.57 782.06C241.27 781.91 278.33 784 312.75 787.96C329.34 789.87 350.25 792.01 366.28 795.69C369.06 796.33 370.3 797.42 371.73 799.76C284.62 818.45 133.78 820.31 47.3 798.29C46.82 793.06 46.89 794.6 50.69 793.63C91.22 783.33 163.71 782.25 206.57 782.06Z" fill="#B0812C"/>
<path d="M412.85 786.42C412.85 786.42 437.6 767.54 401.25 758.01C364.9 748.48 291.59 742.08 291.59 742.08L216.9 739.32L198.6 739.88L353.58 786.49L412.84 786.43L412.85 786.42Z" fill="#A0742B"/>
<path d="M215.27 741.5H203.24V747.69H215.27V741.5Z" fill="#A0742B"/>
<path d="M104.46 745.74C104.46 745.74 33.4802 756.79 22.5102 764.9C11.5402 773.01 12.1502 764.9 12.1502 764.9L18.8202 755.02L93.5201 739.55L104.46 745.73V745.74Z" fill="#BB872C"/>
<path d="M15.53 768.97C15.53 768.97 21.56 764.89 23.4 763.96C25.25 763.04 29.57 761.61 29.57 761.61L23.72 768.37L17.35 769.35L15.52 768.97H15.53Z" fill="#A1752B"/>
<path d="M-0.399902 773.49C-0.399902 773.49 14.9501 827.1 28.5301 840.5C42.1101 853.9 61.9301 860.03 61.9301 860.03L-0.399902 773.49Z" fill="#BB872C"/>
<path d="M398.17 836.88L435.91 774.68L432.12 765.48L409.22 812.33L398.17 836.88Z" fill="#BB872C"/>
<path d="M50.98 793.55L39.48 796.15L47.71 798.27L50.98 793.55Z" fill="#B0812C"/>
<path d="M1255.15 752.81L1080.63 289.36C1094.87 286.27 1098.81 267.4 1089.23 257.14C1086.17 253.85 1080.04 252.95 1077.79 250.74C1076.37 249.33 1076.49 249.35 1076.28 247.32C1073.46 220.95 1078.61 176.67 1076.28 149.75C1076.15 148.36 1076.34 147.75 1076.96 147.08C1074.78 146.89 1072.64 147.12 1071.13 148.29C1072.42 149.85 1071.97 150.5 1072.15 152.63C1074.36 178.76 1070.27 220.86 1072.15 247.34C1072.42 249.22 1071.77 249.66 1070.65 250.76C1069.35 252.02 1065.12 253.19 1062.8 255.06C1049.81 265.52 1052.46 283.94 1067.73 290.01C1035.3 376.29 1004.44 463.18 972.121 549.46C969.273 557.05 958.743 588.61 954.967 592.33C955.256 597.25 952.119 601.07 950.69 605.19C946.125 618.3 941.279 631.05 936.404 643.78C934.945 647.58 933.606 651.41 932.127 655.21C928.561 664.39 925.404 678.11 921.128 686.26C920.468 687.54 919.119 688.97 917.841 689.53L919.119 690.19C916.941 695.75 914.514 701.22 912.136 706.67C910.817 709.72 911.496 713.18 907.86 716.67C904.463 725.45 898.868 749.33 893.683 755.7C890.885 759.14 879.815 758.9 879.306 767.53C879.016 772.43 898.748 805.7 902.984 810.89C910.477 820.09 922.296 826.31 933.186 830.68C998.946 857 1161.74 859.59 1225.16 827.75C1241.82 819.36 1245.84 813.1 1255.1 797.67C1258.28 792.37 1268.99 774.5 1270.23 769.91C1273.71 756.85 1259.58 759.43 1255.15 752.81ZM1070.23 261.02C1085.82 256.32 1091.64 277.22 1077.85 281.56C1063.22 286.15 1058.25 264.66 1070.23 261.02ZM1074.91 295.05L1247.68 751.71C1217.55 744.71 1186.5 740.39 1155.59 738.14C1103.87 734.37 1048.82 734.15 997.128 738.14C965.757 740.55 934.096 744.87 903.584 752.39L1074.91 295.05ZM1229.15 788.14C1155.12 806.21 1047.34 807.29 971.571 797.96C942.538 794.39 913.065 788.03 886.429 775.98C887.378 774.08 890.336 775.98 891.725 776.42C911.347 782.38 926.622 787.56 947.373 790.76C1021.25 802.17 1121.27 801.75 1195.42 792.24C1205.72 790.92 1219.09 788.86 1229.16 786.7C1229.95 786.52 1244.77 779.66 1244.88 783.13C1240.07 785.87 1234.45 786.84 1229.16 788.14H1229.15ZM1220.63 781.76C1169.66 792.95 1108.89 793.12 1057.14 792.35C1011.33 791.69 950.021 790.45 906.791 775.65C879.626 766.36 906.751 757.18 920.368 754.2C947.973 748.15 986.268 744.27 1014.66 742.81C1072.53 739.88 1188.82 738.97 1242.02 757.4C1275.42 768.96 1233.71 778.89 1220.64 781.76H1220.63Z" fill="#C7972C"/>
<path d="M1076.96 147.07C1076.33 147.74 1076.15 148.36 1076.28 149.74C1078.61 176.66 1073.44 220.94 1076.28 247.31C1076.5 249.34 1076.36 249.33 1077.78 250.74V147.17C1077.5 147.13 1077.23 147.1 1076.96 147.08V147.07Z" fill="#AE852E"/>
<path d="M1072.16 152.61C1071.98 150.47 1072.42 149.83 1071.13 148.27C1071.11 148.29 1071.08 148.3 1071.06 148.32C1070.93 148.43 1070.79 148.53 1070.65 148.62V250.72C1071.78 249.62 1072.42 249.19 1072.16 247.29C1070.29 220.82 1074.36 178.72 1072.16 152.6V152.61Z" fill="#AE852E"/>
<path d="M1014.66 742.82C1072.52 739.87 1188.81 738.97 1242 757.4C1275.4 768.97 1233.68 778.89 1220.62 781.75C1169.64 792.94 1108.87 793.12 1057.13 792.35C1011.32 791.67 950.001 790.44 906.771 775.63C879.626 766.33 906.731 757.16 920.349 754.18C947.963 748.14 986.258 744.25 1014.65 742.8L1014.66 742.82Z" fill="#AF842E"/>
<path d="M1229.14 786.71V788.14C1155.12 806.22 1047.33 807.29 971.581 797.96C942.538 794.38 913.055 788.03 886.419 775.99C887.389 774.09 890.326 775.99 891.725 776.41C911.347 782.38 926.623 787.56 947.363 790.76C1021.24 802.17 1121.26 801.75 1195.41 792.24C1205.71 790.92 1219.08 788.87 1229.14 786.71Z" fill="#F9E48D"/>
<path d="M1229.15 786.71C1229.95 786.54 1244.76 779.67 1244.87 783.14C1240.08 785.86 1234.44 786.85 1229.15 788.14V786.71Z" fill="#F9E186"/>
<path d="M1075.89 297.25L1065.62 736.18" stroke="#C7972C" stroke-width="2.85" stroke-miterlimit="10"/>
<path d="M1068.55 299.47L894.172 759.65" stroke="#C7972C" stroke-width="2.86" stroke-miterlimit="10"/>
<path d="M1300 772.05C1300 772.73 1299.93 773.42 1299.77 774.1C1299.56 775 1299.22 775.9 1298.73 776.78C1298.54 777.15 1298.32 777.51 1298.07 777.87C1297.14 779.27 1295.87 780.65 1294.31 782C1291.97 784.01 1288.95 785.95 1285.3 787.83C1279.97 790.59 1273.28 793.2 1265.41 795.65C1265.39 795.65 1265.38 795.65 1265.37 795.65C1237.73 804.23 1195.46 810.75 1145.61 813.78C1125.5 815.01 1104.15 815.67 1082.04 815.67C1031.17 815.67 984.36 812.18 947.274 806.34C933.496 804.17 921.048 801.67 910.248 798.9C909.089 798.61 907.95 798.31 906.831 798C906.201 797.84 905.592 797.67 904.983 797.49C889.327 793.14 877.588 788.19 870.794 782.83C870.005 782.22 869.295 781.6 868.636 780.97C866.188 778.62 864.7 776.2 864.24 773.73C864.14 773.18 864.08 772.61 864.08 772.06C864.08 771.18 864.21 770.3 864.47 769.42C864.66 768.79 864.909 768.17 865.219 767.56C866.068 765.9 867.387 764.27 869.135 762.67C870.814 761.14 872.882 759.65 875.34 758.19C904.303 740.9 985.898 728.45 1082.03 728.45C1202.4 728.45 1299.98 747.97 1299.98 772.06L1300 772.05Z" fill="#BB872C"/>
<path d="M1243.25 752.57C1242.27 753.88 1241.02 754.54 1239.47 754.3C1217.24 750.73 1198.91 747.96 1176.92 746.65C1168.96 748.45 1162.03 747.82 1156.07 744.76L1088.64 742.54C1085.82 745.82 1078.55 749.13 1074.17 747.76C1072.58 747.27 1071.36 746.17 1070.88 744.23C1070.88 744.23 1070.88 744.21 1070.88 744.2C1070.83 744.04 1070.8 743.88 1070.78 743.7C1070.76 743.62 1070.75 743.54 1070.73 743.45C1068.24 743.55 1067.87 743.06 1068.97 742.1C1069.39 741.72 1070.04 741.28 1070.88 740.77L1070.83 740.48C1070.72 739.12 1071.63 737.03 1073.56 734.24V733.56C1074.22 733.56 1074.84 733.53 1075.43 733.52C1076.85 733.49 1078.09 733.47 1079.12 733.45V733.86C1080.28 734.54 1080.98 735.86 1081.19 737.81L1083.56 735.11L1108.35 734.88L1110.66 737.81H1110.68L1126.87 739.28C1128.49 738.53 1130.13 737.85 1131.81 737.38C1133.48 736.91 1135.13 736.5 1136.76 736.51C1168.01 736.65 1203.48 741.68 1234.19 747.84C1235.78 748.15 1237.29 748.9 1238.82 749.7C1240.35 750.51 1241.79 751.5 1243.22 752.54C1243.22 752.54 1243.22 752.56 1243.24 752.56L1243.25 752.57Z" fill="#BB872C"/>
<path d="M1296.04 779.47C1295.45 780.3 1294.87 781.14 1294.31 781.99C1288.6 790.48 1283.94 799.78 1279.22 808.98C1275.27 816.64 1271.28 824.21 1266.56 831.2C1265.2 833.21 1263.79 835.08 1262.32 836.85L1262.3 836.88C1255.6 844.9 1247.64 850.57 1237.9 855.6C1170.44 890.37 1004.58 893.17 926.363 860.04C926.363 860.04 926.363 860.04 926.343 860.04C921.258 857.88 916.542 855.57 912.246 853.12C895.222 843.35 888.018 831.25 881.504 816.67L868.656 780.98L867.827 778.7L864.49 769.43C864.68 768.8 864.929 768.18 865.239 767.57C866.828 766.32 868.086 764.57 869.156 762.68C870.834 761.15 872.902 759.66 875.36 758.2C875.62 758.3 875.889 758.41 876.149 758.52C877.208 758.95 878.267 759.44 879.336 759.96L879.376 759.93C879.816 759.5 880.305 759.09 880.835 758.67C881.594 758.1 882.433 757.54 883.342 757.02C883.342 757.02 883.372 757.02 883.382 757C890.856 752.67 902.705 750.42 908.789 754.06C908.899 754.04 909.019 754.01 909.129 753.98C909.149 753.98 909.169 753.98 909.189 753.96C909.279 753.94 909.369 753.92 909.458 753.89C909.488 753.89 909.528 753.89 909.548 753.87C909.578 753.87 909.608 753.87 909.628 753.87C911.477 753.51 912.266 753.95 911.916 755.39C911.846 755.68 911.736 755.99 911.587 756.33L889.547 761.75L888.548 763.65L888.338 764.03L888.158 764.37L888.508 766.36C886.789 767.25 885.291 768.13 884.012 769.01C871.843 777.38 878.787 785.49 904.853 793.35L905.542 795.79L905.782 796.63L905.832 796.81C906.321 796.96 906.811 797.09 907.29 797.21C908.709 797.6 910.128 798.01 911.577 798.37C923.216 801.48 935.135 804.11 947.244 806.33C1011.01 818.02 1080.29 818.12 1145.58 813.78C1150.68 813.44 1155.76 813.08 1160.81 812.68C1180.14 811.17 1232.76 806.31 1262.5 795.22C1262.55 795.2 1262.58 795.19 1262.63 795.17C1270.71 792.15 1277.08 788.68 1280.63 784.68C1280.81 784.49 1281.01 784.24 1281.24 783.96C1281.24 783.96 1281.26 783.94 1281.27 783.93C1281.29 783.9 1281.32 783.87 1281.34 783.85C1282.91 781.92 1285.17 778.61 1283.42 778.98C1283.31 779.01 1283.17 779.06 1283.02 779.11C1268.98 773.02 1255.02 766.76 1241.15 760.34L1240.28 756.99C1242.58 755.41 1243.71 754.19 1243.69 753.35C1243.69 753.04 1243.52 752.79 1243.23 752.57L1246.29 750.12C1255.11 750.95 1263.78 752.73 1272.27 755.46L1272.12 755.07L1287.87 765.41C1289.56 767.45 1291.71 769.22 1293.41 771.19C1295.35 773.44 1296.68 775.97 1296.02 779.47H1296.04Z" fill="#BB872C"/>
<path d="M888.178 764.36C888.178 763.15 888.248 762.17 888.637 762.04C895.241 759.66 903.993 757.02 910.597 755.66C961.77 745.07 1017 742.87 1068.69 741.99C1069.85 742.46 1073.3 744.69 1073.83 745.42C1074.85 746.81 1074.13 776.16 1073.83 779.95L1070.88 782.07L1066.44 785.04C1030.93 785.37 995.14 785.9 959.672 789.48C945.136 790.95 929.33 792.76 915.343 796.52C914.034 796.87 912.845 797.47 911.756 798.29C909.898 799.64 906.921 798.84 905.862 796.82C901.126 795.41 877.518 785.38 875.679 782.07C871.083 773.83 880.605 767.88 886.989 764.92C887.399 764.73 887.808 764.55 888.188 764.38L888.178 764.36Z" fill="#A1752B"/>
<path d="M1070.87 740.77C1071.07 740.9 1070.99 743.66 1072.28 744.51C1075.69 746.78 1083 742.56 1087.07 742.22L1081.19 739.3L1157.16 742.11C1162.09 746.84 1170.24 743.33 1177.67 743.73C1196.14 744.73 1224.93 748.91 1243.25 752.55C1247.93 753.48 1256.5 755.91 1261.25 757.42C1262.79 757.91 1265.7 757.8 1265.35 759.91C1261.88 758.8 1254.25 760.46 1251.64 759.93C1250.5 759.7 1250.75 757.29 1249.62 757C1246.93 756.32 1243.22 757.34 1240.31 756.98L1237.32 759.28C1218.49 755.31 1199.32 751.99 1180.08 751.02L1179.9 785.81L1176.95 787.95C1173.3 788.95 1169.53 789.93 1165.71 789.7C1137.73 788 1109.86 786.43 1081.87 785.03C1078.04 784.84 1074.41 783.45 1070.88 782.05V743.7L1012.62 745.12C982.771 746.98 913.914 753.17 888.188 764.35L885.241 760.66L909.648 755.57L908.819 754.02C911.696 753.46 915.583 751.7 919.13 751.07C969.094 744.12 1020.04 739.27 1070.55 738.69L1070.88 740.74L1070.87 740.77Z" fill="#A0742B"/>
<path d="M1240.3 756.99C1246.09 758.47 1250.54 762.73 1255.49 764.65C1262.72 767.45 1274.1 770.06 1280.18 773.9C1282.82 775.57 1283.83 774.61 1283.03 779.11C1282.75 785.99 1273.67 790.59 1267.67 793.38C1264 795.09 1239.01 802.51 1237.37 801.45C1236.76 801.06 1236.3 800.44 1235.88 799.75C1218.12 795.71 1199.39 793.39 1181.03 791.39L1176.94 787.96V748.14C1180.07 748.04 1183.2 748.06 1186.33 748.34C1200.57 749.61 1226.67 753.52 1240.29 757L1240.3 756.99Z" fill="#A0742B"/>
<path d="M1075.42 733.53V735.66L1070.87 740.77C1065.81 737.32 979.584 744.41 960.422 746.61C959.603 746.7 958.903 746.79 958.344 746.86C948.103 748.21 937.103 751.21 927.023 752.4C924.635 752.68 920.608 753.58 919.11 751.09C955.546 744.64 994.081 740.19 1031.09 739.3L1050.24 737.82C1054.43 737.8 1070 738.88 1071.69 736.44V733.61C1072.34 733.59 1072.96 733.58 1073.55 733.57C1074.21 733.57 1074.83 733.54 1075.42 733.53Z" fill="#BB872C"/>
<path d="M905.852 796.81C907.79 797.39 909.788 797.79 911.746 798.28L918.7 796.94C967.945 807.84 1018.83 811.14 1069.35 811.33C1125.4 811.54 1174.12 805.84 1228.98 798.17C1230.06 798.02 1231.2 798.22 1232.36 798.49C1233.57 798.77 1234.73 799.24 1235.89 799.76C1252.23 796.25 1273.91 795.11 1283.04 779.11C1284.04 777.34 1284.02 774.47 1285.96 774.69C1286.39 790.24 1263.07 796.82 1250.64 800.51C1219.24 809.82 1176.74 814.03 1143.86 816.04C1070.35 820.52 980.443 818.63 909.308 800C908.399 799.76 902.535 798.64 905.862 796.81H905.852Z" fill="#ECB42D"/>
<path d="M1000.15 821.88C1041.2 825.32 1092.18 825.55 1133.46 823.34C1150.86 822.41 1168.26 818.64 1185.78 818.94C1187.19 820.39 1175.22 852.94 1173.24 857.25C1172.35 859.19 1171.08 862.69 1169.66 863.99C1166.54 866.86 1151.94 868.43 1146.72 869.05C1101.03 874.47 1054.18 872.76 1008.99 867.59C1003.01 854.32 997.777 836.36 1000.15 821.87V821.88Z" fill="#D3A12A"/>
<path d="M1000.15 821.88C1002.37 835.02 1005.51 848.1 1009.01 860.96C1009.54 862.91 1011.9 866.25 1008.99 867.6C983.65 864.71 961.391 862.32 936.793 854.33L932.427 850.54C924.015 825.29 919.819 812.67 919.819 812.67L922.067 810.09C946.514 815.32 975.268 819.8 1000.16 821.89L1000.15 821.88Z" fill="#EBB424"/>
<path d="M922.067 810.08L936.803 854.32C930.459 852.26 919.299 849.73 914.664 844.77C907.131 836.7 902.495 814.66 895.611 804.84C894.502 800.07 900.656 804.8 902.555 805.28C908.899 806.89 915.733 808.73 922.067 810.08Z" fill="#D19F2A"/>
<path d="M1070.87 782.06C1105.54 781.91 1142.56 784 1176.95 787.96C1193.53 789.87 1214.42 792.01 1230.43 795.69C1233.21 796.33 1234.45 797.42 1235.88 799.76C1148.85 818.45 998.147 820.31 911.747 798.29C911.267 793.06 911.337 794.6 915.133 793.63C955.626 783.33 1028.05 782.25 1070.87 782.06Z" fill="#B0812C"/>
<path d="M1276.96 786.42C1276.96 786.42 1301.69 767.54 1265.37 758.01C1229.05 748.48 1155.81 742.08 1155.81 742.08L1081.19 739.32L1062.91 739.88L1217.75 786.49L1276.95 786.43L1276.96 786.42Z" fill="#A0742B"/>
<path d="M1079.56 741.5H1067.54V747.69H1079.56V741.5Z" fill="#A0742B"/>
<path d="M968.854 745.74C968.854 745.74 897.939 756.79 886.979 764.9C876.019 773.01 876.629 764.9 876.629 764.9L883.293 755.02L957.924 739.55L968.854 745.73V745.74Z" fill="#BB872C"/>
<path d="M880.006 768.97C880.006 768.97 886.03 764.89 887.868 763.96C889.717 763.04 894.033 761.61 894.033 761.61L888.188 768.37L881.824 769.35L879.996 768.97H880.006Z" fill="#A1752B"/>
<path d="M864.09 773.49C864.09 773.49 879.426 827.1 892.993 840.5C906.561 853.9 926.363 860.03 926.363 860.03L864.09 773.49Z" fill="#BB872C"/>
<path d="M1262.29 836.88L1300 774.68L1296.21 765.48L1273.33 812.33L1262.29 836.88Z" fill="#BB872C"/>
<path d="M915.423 793.55L903.934 796.15L912.156 798.27L915.423 793.55Z" fill="#B0812C"/>
<path d="M554.36 363.86C553.84 360.99 549.75 359.25 545.31 357.86C542.7 360.56 540.52 363.69 539.13 367.09C542.7 368.66 545.75 370.75 548.36 373.09C550.8 371.18 554.89 366.48 554.37 363.86H554.36Z" fill="#C43827"/>
<path d="M548.26 375.52C542.6 378.48 534.42 389.36 534.42 397.71C534.42 406.06 540.43 407.46 546.34 407.46H555.83C555.92 408.07 555.92 408.68 555.92 409.38H523.19C513.7 409.38 511.18 405.9 511.18 400.68C511.18 399.03 511.44 397.29 511.79 395.37L508.48 394.41L502.91 411.38C502.91 426.18 506.13 434.1 518.84 434.1H559.14L565.41 415.74V406.69C565.41 390.59 556.97 377.97 548.26 375.53V375.52ZM541.3 392.76L544.96 386.67C546.61 387.63 549.4 390.33 550.7 392.76H541.3Z" fill="#C43827"/>
<path d="M716.96 387.19C719.75 388.67 722.27 390.41 724.45 392.41C726.89 390.49 730.98 385.8 730.45 383.18C729.93 380.31 725.84 378.57 721.4 377.17C720.01 378.56 718.79 380.13 717.66 381.78C716.27 379.69 712.87 378.3 709.22 377.17C706.61 379.87 704.43 383 703.04 386.4C706.61 387.97 709.65 390.06 712.27 392.41C713.66 391.28 715.66 389.28 716.97 387.19H716.96Z" fill="#C43827"/>
<path d="M749.08 384.49L749.6 375H749.25C745.77 376.22 740.89 376.83 737.76 375.61C738.98 374.3 742.02 372.65 745.25 372.65L746.9 373.96L747.51 373.35C747.51 368.56 743.51 366.3 740.55 366.3C735.24 368.48 734.81 375.35 735.15 377.18C735.5 377.96 736.19 378.49 736.63 379.1L733.76 379.97L733.67 388.5L734.02 388.59C738.63 386.67 744.46 385.02 749.08 384.5V384.49Z" fill="#C43827"/>
<path d="M745.68 388.75L736.45 397.89L742.98 409.38H730.62C721.22 409.38 719.65 403.37 719.65 397.63C719.65 397.19 719.65 396.67 719.74 396.24L716.26 395.54L712.43 409.38H705.12H690.24H675.36H660.48H645.6H630.72H609.65C609.74 407.29 609.74 405.2 609.74 403.03C609.74 392.32 609.04 381.1 608.61 372.65H607.74L597.64 381.18C598.77 391.71 599.64 400.76 600.25 409.38H595.9L597.55 405.03L578.66 377.79H577.79L571.09 387.62C565 395.63 576.05 396.67 577.62 401.46L580.14 398.59L589.1 409.38H572.39V412.08L578.4 434.1H595.46L600.77 419.04C601.03 424.52 601.12 428.27 601.2 434.1H630.71H645.59H660.47H675.35H690.23H705.11H713.12L715.82 425.22C719.21 430.44 724.7 434.1 730.62 434.1H746.81L752.38 415.74V409.39C752.38 404.51 750.46 394.16 746.55 388.76H745.68V388.75Z" fill="#C43827"/>
<path d="M770.4 372.65H769.53L759.35 379.62L762.83 434.1H763.7L771.45 422.18L770.4 372.65Z" fill="#C43827"/>
<path d="M710.08 483.37C712.87 484.85 715.39 486.59 717.57 488.59C720.01 486.68 724.1 481.98 723.57 479.36C723.05 476.49 718.96 474.75 714.52 473.35C713.13 474.74 711.91 476.31 710.78 477.96C709.39 475.87 705.99 474.48 702.34 473.35C699.73 476.05 697.55 479.18 696.16 482.58C699.73 484.15 702.77 486.24 705.39 488.58C706.78 487.45 708.78 485.45 710.09 483.36L710.08 483.37Z" fill="#C43827"/>
<path d="M751.6 483.37C751.6 481.63 751.86 479.63 752.3 477.62L751.43 477.01L739.51 487.37C739.07 489.2 738.81 490.85 738.81 492.33C738.81 495.38 739.68 497.81 741.07 499.64L742.46 513.83H734.62H728.18C726.79 506.17 725.22 498.25 723.83 488.5H722.96L712.95 496.07L713.73 499.2L701.63 505.73C693.1 510.34 692.49 520.09 692.49 531.32C697.19 534.89 703.98 537.41 715.47 538.54L719.91 525.22L723.13 538.54H734.62H746.63L752.11 520.18L751.67 504.77L756.63 493.02V491.8C752.89 490.41 751.58 487.36 751.58 483.36L751.6 483.37ZM703.64 511.83L715.39 506.17L717.22 513.74C711.48 513.57 706.25 512.87 703.64 511.83Z" fill="#C43827"/>
<path d="M775.97 495.04C770.31 498.26 760.13 509.31 760.13 525.85C760.13 536.21 768.14 538.56 775.97 538.56H784.24C777.62 543.61 769.36 546.48 760.13 547.96L760.3 549.26L781.28 559.53C788.59 550.39 792.51 537.86 792.51 526.11C792.51 512.44 787.29 499.91 775.97 495.04ZM768.66 513.83L772.32 507.74C774.32 508.96 776.85 511.57 778.06 513.83H768.66Z" fill="#C43827"/>
<path d="M818.97 488.68H818.1L809.74 497.64L825.67 513.83H818.97C807.57 513.83 805.04 513.57 805.39 508.43L802.6 507.73L798.6 520.35C798.6 532.53 801.73 538.54 810.61 538.54H829.32L834.89 520.18V513.83C834.54 501.99 822.88 491.29 818.96 488.68H818.97Z" fill="#C43827"/>
<path d="M495.34 495.04L485.07 505.57L494.38 524.02C487.94 525.94 481.67 527.07 476.28 527.07C464.27 527.07 460.27 523.5 460.27 514.88C460.27 512.09 460.71 508.79 461.4 504.87L458.09 503.65L452 523.76C451.65 525.94 451.65 528.2 451.65 530.11C451.65 542.82 461.4 549.69 474.19 549.69C481.5 549.69 489.86 547.43 497.95 542.73L503.52 520.8C503 510.44 500.13 501.74 496.21 495.04H495.34Z" fill="#C43827"/>
<path d="M481.59 511.57C481.07 508.7 476.98 506.96 472.54 505.57C469.93 508.27 467.75 511.4 466.36 514.8C469.93 516.37 472.97 518.46 475.59 520.8C478.03 518.89 482.12 514.19 481.6 511.57H481.59Z" fill="#C43827"/>
<path d="M565.41 483.37C564.89 480.5 560.8 478.76 556.36 477.36C553.75 480.06 551.57 483.19 550.18 486.59C553.75 488.16 556.8 490.25 559.41 492.6C561.85 490.68 565.94 485.98 565.41 483.37Z" fill="#C43827"/>
<path d="M562.8 493.21L553.57 502.35L560.1 513.84H547.74H541.3C539.04 505.4 534.08 498.43 526.33 495.04C520.67 498.26 510.49 509.31 510.49 525.85C510.49 536.21 518.5 538.56 526.33 538.56H534.6C527.98 543.61 519.72 546.48 510.49 547.96L510.66 549.26L531.64 559.53C536.43 553.61 539.73 546.21 541.47 538.55H547.74H563.93L569.5 520.19V513.84C569.5 508.97 567.59 498.61 563.67 493.21H562.8ZM519.02 513.83L522.68 507.74C524.68 508.96 527.21 511.57 528.42 513.83H519.02Z" fill="#C43827"/>
<path d="M614.25 482.94C617.04 484.42 619.56 486.16 621.74 488.16C624.18 486.24 628.27 481.54 627.74 478.93C627.22 476.06 623.13 474.32 618.69 472.93C617.3 474.32 616.08 475.89 614.95 477.54C613.56 475.45 610.16 474.06 606.51 472.93C603.9 475.63 601.72 478.76 600.33 482.16C603.9 483.73 606.94 485.82 609.56 488.17C610.95 487.04 612.95 485.04 614.26 482.95L614.25 482.94Z" fill="#C43827"/>
<path d="M653.59 483.37C653.59 481.63 653.85 479.63 654.29 477.62L653.42 477.01L641.5 487.37C641.06 489.2 640.8 490.85 640.8 492.33C640.8 495.38 641.67 497.81 643.06 499.64L644.45 513.83H636.62H629.66L631.31 510.61C631.31 505.39 625.31 493.73 614.34 491.64C608.25 495.56 602.33 503.48 600.15 513.83H588.31L587.53 477.1H586.66L576.48 484.06L579.79 538.54H616.52L619.13 533.14C623.92 536.62 630.1 538.54 636.62 538.54H648.63L654.11 520.18L653.68 504.77L658.64 493.02V491.8C654.9 490.41 653.59 487.36 653.59 483.36V483.37ZM615.12 512.79C612.94 512.18 609.99 510.27 607.72 508L610.51 504.26C614.51 504.96 618.08 508 619.74 510.79C618.7 511.66 617.48 512.53 615.13 512.79H615.12Z" fill="#C43827"/>
<path d="M674.04 477.11H673.17L662.99 484.07L666.47 538.55H667.34L675.09 526.63L674.04 477.11Z" fill="#C43827"/>
<path d="M712 708.47C711.03 692.26 713.52 678.44 723.9 665.65C725.19 664.06 734.15 654.57 735.68 655.97C742.15 675.84 742.31 693.7 725.99 708.6C745.91 705.71 760.49 714.2 773.06 728.7C754.37 738.81 731.09 733.7 715.59 720.24L678.88 726.64L707.04 742.1C710.54 744.9 725.45 758.25 722.63 762.67L711.58 766.91C703.74 751.1 684.99 742.71 668.88 737.31C645.06 729.33 637.58 730.36 614.08 738.72C599.54 743.89 581.54 751.81 574.77 766.62L562.5 762.62C565.37 752.42 575.34 744.51 583.93 739.05C591.27 734.38 600.04 731.93 606.83 726.63C596.87 728.29 574.82 718.72 567.01 722.12C562.83 723.94 558.2 728.97 552.37 731.04C541.5 734.9 523.59 735.71 514.01 728.67C523.57 714.17 542.45 704.16 559.72 710C557.68 704.05 551.87 700.93 549.35 694.76C544.68 683.32 545.96 666.75 552.11 656C565.48 664.99 573.76 680.94 574.83 696.99C575.03 700.04 572.72 703.07 573.75 706.29C574.88 709.82 593.79 712.96 598.23 713.75C627.07 718.9 647.64 719.63 676.56 715.31C688.45 713.53 700.19 710.71 711.97 708.48L712 708.47Z" fill="#1E6734"/>
<path d="M472.47 256.99C475.82 270.59 477.25 285.54 472.19 298.95C471.03 302.02 468.42 303.71 468.33 306.85C480.21 302.44 492.03 302.94 503.48 308.41C506.27 309.74 516.18 316.22 516.75 318.73C517.47 321.91 504.67 326.5 501.86 327.23C488.34 330.74 463.79 327.46 454.67 315.66C441.27 298.31 451.91 264.89 472.47 256.99Z" fill="#1E6734"/>
<path d="M383.83 493.87L392.97 480.18C402.38 471.23 415.3 467.74 428.14 467.57C426.75 493.59 396.75 517.01 371.79 505.21C355.61 497.56 345.78 478.15 346.42 460.64C364.62 463.8 381.16 474.35 383.83 493.87Z" fill="#1E6734"/>
<path d="M873.53 431.54C883.17 433.04 894.69 441.92 900.53 449.55C899.29 432.16 912.47 415.33 928.24 409.37C934.58 427.75 924.25 462.79 902.69 464.85C879.24 467.09 858.29 453.61 850.67 431.54C857.75 432.31 866.74 430.48 873.53 431.54Z" fill="#1E6734"/>
<path d="M913 363.66C917.75 380.98 917.87 397.25 906.66 412.02C897.01 424.73 890.78 426.06 874.87 424.66C858.45 423.22 846.23 412.7 838.22 398.97C851.24 393.52 866.01 395.69 878.67 401.47L889.46 409.37C884.09 391.29 896.64 371.23 913 363.67V363.66Z" fill="#1E6734"/>
<path d="M433.68 535.44C436.65 554.18 431.68 575.65 415.72 587.42C395.66 602.21 362.46 579.59 357.65 558.12C357.06 555.47 357.66 556.44 359.55 556.21C371.03 554.84 388.66 558.96 396.96 567.31C399.87 570.24 400.7 575.85 404.59 575.6C402.57 556.33 416.09 540.77 433.68 535.44Z" fill="#1E6734"/>
<path d="M502.96 283.29C520.61 278.61 540.22 285.98 551.44 299.91C536.3 307.03 525.85 310.88 509.12 305.54C470.4 293.18 480.07 254.21 509.19 237.61C516.21 251.76 513.56 271.5 502.96 283.29Z" fill="#1E6734"/>
<path d="M881.16 575.6C884.46 576.36 883.4 575.05 884.25 573.8C894.23 559.04 911.11 555.59 928.25 556.22C923.36 579.56 891.13 603.3 869.41 586.66C854.62 575.32 846.98 553.56 852.07 535.44C868.42 542.31 883.2 556.41 881.16 575.6Z" fill="#1E6734"/>
<path d="M939.33 460.63C941.21 484.62 920.03 513.67 894.1 507.93C873.58 503.38 862.2 487.87 857.62 468.22C871.75 466.56 886.15 472.1 895 483.48C897.63 486.87 898.14 491.68 901.91 493.87C904.3 474.28 921.76 464.69 939.32 460.63H939.33Z" fill="#1E6734"/>
<path d="M396.3 410.76C407.79 396.02 423.86 394.35 441.33 396.88C443.38 397.18 444.85 396.88 446.16 399.01C433.33 424.15 396.36 436.97 377.67 410.67C367.77 396.74 366.22 377.6 373.43 362.3C390.71 374.23 399.1 389.25 396.3 410.76Z" fill="#1E6734"/>
<path d="M818.82 370.6C835.37 363.86 855.38 358.39 870.06 371.97C865.66 354.1 870.55 333.82 885.3 322.1C891.89 339.22 897.44 353.05 889.3 371.1C882.01 387.26 866.39 389.86 850.01 388.57C838.6 387.67 823.38 381.62 818.82 370.61V370.6Z" fill="#1E6734"/>
<path d="M433.69 431.54C425.49 455.41 389.73 477.64 368.55 457.2C355.76 444.86 353.73 425.94 357.52 409.38C372.95 415.24 386.63 430.71 385.22 448.16C387.13 448.53 386.99 448.46 388.11 447.28C392.64 442.45 402 431.54 409.46 431.54H433.7H433.69Z" fill="#1E6734"/>
<path d="M830.84 317.51C820.54 329.84 782.55 332.77 770.32 319.99C779.46 305.51 802 299.89 817.41 306.86C814.78 300.09 811.28 294.29 810.51 286.76C809.45 276.4 811.84 267.06 813.27 257C833.7 263.45 843.61 302.23 830.83 317.52L830.84 317.51Z" fill="#1E6734"/>
<path d="M734.31 299.91C746.41 287.45 764.27 281.66 781.4 281.91C777.92 274.13 773.59 266.4 773.1 257.63C772.7 250.47 774.93 244.46 775.88 237.58C802.91 249.49 815.46 287.71 783.74 302.94C765.61 311.65 751.57 308.5 734.31 299.9V299.91Z" fill="#1E6734"/>
<path d="M896.37 534.05C901.71 517.31 922.77 508.17 939.33 509.13C927.08 566.24 857.93 561.02 858.99 500.81C870.62 503.32 886.78 512.87 892.05 523.84C893.86 527.61 892.78 532.43 896.37 534.04V534.05Z" fill="#1E6734"/>
<path d="M346.42 509.13C364.16 508.36 383.53 516.54 390.05 534.05C392.91 529.95 392.28 525.77 395.14 521.13C401.2 511.28 414.48 504.45 425.27 501.34L428.09 502.86C425.5 514.8 424.12 525.4 416.26 535.32C391.99 565.96 351.38 541.6 346.43 509.13H346.42Z" fill="#1E6734"/>
<path d="M403.18 322.1C412.27 337.41 422.05 353.82 414.3 371.96C421.1 366.86 431.38 363.44 439.91 363.53C444.02 363.58 466.61 367.65 465.53 372.62C465.21 374.1 451.89 383.13 449.43 384.25C414.5 400.06 385.86 377.8 392.74 340.03C393.22 337.39 399.61 319.54 403.17 322.09L403.18 322.1Z" fill="#1E6734"/>
<path d="M437.86 338.72C455.04 327.19 472.55 331.65 489.1 341.52C491.27 344.61 477.35 351.91 474.82 352.83C459.75 358.31 433.78 358.43 424.22 343.34C412.75 325.23 419.42 302.27 430.94 286.08L438.51 298.57C444.23 313.3 445.06 324.3 437.86 338.72Z" fill="#1E6734"/>
<path d="M846.52 337.32C838.96 323.41 841.74 302.44 851.26 290.07C852.01 289.1 851.77 286.37 854.12 287.47C855.21 287.98 861.6 298.02 862.44 299.93C871.79 321.05 867.81 348.88 842.43 354.72C825.61 358.59 809.51 355.61 796.67 343.56C805.79 334.87 820.48 329.98 833.03 332.12C837.95 332.96 841.73 336.61 846.52 337.32Z" fill="#1E6734"/>
<path d="M768.92 640.73C776.52 658.64 774.62 678.31 762.01 693.36C779.64 686.63 799.51 695.64 811.88 708.6C776.82 726.62 736.34 710 748.83 665.65C750.34 660.28 753.11 655.52 756.51 651.16C757.93 649.34 767.18 639.47 768.93 640.74L768.92 640.73Z" fill="#1E6734"/>
<path d="M473.87 708.59C487.01 696 505.59 686.85 523.74 693.36C513.06 679.36 510.74 667.65 514.72 650.41C515.2 648.34 516.25 639.61 518.88 640.74C534.65 653.54 541.71 669.07 538.87 689.79C534.95 718.33 494.05 720.88 473.88 708.6L473.87 708.59Z" fill="#1E6734"/>
<path d="M404.6 644.9C416.12 638.66 428.1 635.54 440.99 639.65C445.87 641.21 449.67 644.97 454.47 646.25C446.52 633.28 451.51 613.12 460.83 602.06C462.45 600.14 463.74 596.98 466.18 599.23C472.17 604.77 475.87 623.6 475.24 631.71C472.64 665.39 440.59 672.64 415.23 655.73C413.51 654.58 403.45 646.53 404.61 644.91L404.6 644.9Z" fill="#1E6734"/>
<path d="M798.01 622.72C805.91 638.82 811.04 656.7 799.42 672.58C812.33 667.7 823.09 667.61 835.95 672.78C838.19 673.68 849.78 679.57 847.9 682.27C831.91 692.63 815.66 697.4 797.31 689.25C776.77 680.14 778.36 649.78 788.07 632.84C789.22 630.83 795.77 621.09 798.01 622.72Z" fill="#1E6734"/>
<path d="M831.29 646.26C846.7 634.33 864.7 636.22 881.15 644.89C869.04 660.36 849 667.72 829.84 662.25C806.71 655.64 805.37 613.33 820.89 597.8C832.84 611.04 839.82 629.3 831.29 646.26Z" fill="#1E6734"/>
<path d="M486.33 672.57C477.47 658.02 478.3 635.68 489.79 622.74C503.18 634.38 506.42 651.74 503.97 668.76C499.82 697.71 453.84 700.13 437.84 680.22C452.44 670.05 469.35 664.59 486.32 672.57H486.33Z" fill="#1E6734"/>
<path d="M378.27 601.95C388.18 600.21 397.84 599.64 407.65 602.35L426.76 613.01C421.43 595.76 432.09 579.78 445.47 570.1C457.46 586.84 450.44 626.35 427.34 629.52C405.94 632.46 386.94 621.4 378.28 601.95H378.27Z" fill="#1E6734"/>
<path d="M860.39 613.02C872.83 600.51 890.64 598.34 907.47 601.95C899.33 621.72 881.1 632.14 859.68 629.65C834.97 626.78 830.54 588.45 839.61 570.08C854.99 579.01 862.64 595.37 860.39 613.02Z" fill="#1E6734"/>
<path d="M544.18 255.96C558.2 253.94 573.26 255.81 584.66 264.6C571.1 275.91 558.32 282.68 540.02 280.17C536.74 279.72 520.53 275.59 521.1 271.75C525.71 263.48 534.81 257.3 544.17 255.95L544.18 255.96Z" fill="#1E6734"/>
<path d="M760.14 264.4C761.19 265.39 766.97 272.54 766.17 273.59C743.04 285.93 721.64 281.25 702.47 264.6C717.38 253.15 746.1 251.15 760.14 264.4Z" fill="#1E6734"/>
</g>
<defs>
<clipPath id="clip0_13_45">
<rect width="1300" height="883" fill="white"/>
</clipPath>
</defs>
</svg>
